<?xml version="1.0" encoding="UTF-8"?>
<svg width="86px" height="58px" viewBox="0 0 86 58" version="1.1" xmlns="http://www.w3.org/2000/svg" xmlns:xlink="http://www.w3.org/1999/xlink">
    <!-- Generator: Sketch 48.2 (47327) - http://www.bohemiancoding.com/sketch -->
    <title>4</title>
    <desc>Created with Sketch.</desc>
    <defs></defs>
    <g id="Desktop-HD" stroke="none" stroke-width="1" fill="none" fill-rule="evenodd" transform="translate(-519.000000, -296.000000)">
        <g id="4" transform="translate(561.768367, 324.699818) rotate(-25.000000) translate(-561.768367, -324.699818) translate(513.268367, 309.699818)" fill="#68C4CA" fill-rule="nonzero">
            <path d="M15.9427853,29.9997777 C8.42470561,29.9618394 3.21737083,25.0510204 0.755663879,16.5351444 L9.96605886,13.872671 C11.3444679,18.6410534 13.2078758,20.3983554 15.9911657,20.4124006 C18.7305321,20.4262242 20.442581,18.8116626 21.6578141,14.238936 L21.6826298,14.1455584 L21.7111879,14.0532567 C24.3867803,5.40555696 29.6333968,0.457692986 37.1087285,0.500257706 C44.5041716,0.542367538 49.7964269,5.4141963 52.677099,13.9348649 L52.7209486,14.0712505 C54.1149984,18.6403801 56.0418655,20.3981371 58.9052699,20.412399 C61.7304585,20.4264706 63.4805431,18.7974682 64.7119843,14.2239168 L64.7373836,14.1295841 L64.7666051,14.0363645 C67.4763704,5.39193078 72.7768688,0.458155325 80.3003509,0.500437998 C87.7728293,0.542434025 93.1459496,5.54380692 96.1789227,14.315544 L87.1177852,17.4485821 C85.2895052,12.1609679 83.0793297,10.1037067 80.2464691,10.0877858 C77.4806346,10.0722415 75.4996814,11.9012222 73.9421776,16.8183889 C71.6500141,25.2151244 66.4385339,30.0375384 58.8575176,29.9997793 C51.3798302,29.9625348 46.1069436,25.1726348 43.5734093,16.94297 C41.8902787,11.9997624 39.818701,10.1033429 37.0541379,10.0876015 C34.3732424,10.0723364 32.432938,11.8876276 30.896748,16.8020786 C28.6341322,25.2005554 23.4747435,30.037786 15.9427853,29.9997777 Z" id="Path-2"></path>
        </g>
    </g>
</svg>